# xmcd CD database file
#
# Track frame offsets:
#	150
#	14275
#	37046
#	49227
#	89069
#	120395
#	148745
#	165845
#	200882
#	234019
#	274771
#	313906
#
# Disc length: 4554 seconds
#
# Revision: 1
# Processed by: cddbd v1.5.2PL0 Copyright (c) Steve Scherf et al.
# Submitted via: CDex 1.51
#
DISCID=a611c80c
DTITLE=Terry Callier - Life Lessons [CD 1)
DYEAR=2006
DGENRE=Blues
TTITLE0=Spin, Spin, Spin
TTITLE1=900 Miles
TTITLE2=Look At Me Now
TTITLE3=I'm A Drifter
TTITLE4=Be My Woman [Live Chicago 1964]
TTITLE5=Ordinary Joe [Original Demo]
TTITLE6=Can't Catch The Trane [Original Demo]
TTITLE7=Alley Wind Song [Original Demo]
TTITLE8=You Goin' Miss Your Candyman
TTITLE9=Dancing Girl
TTITLE10=African Violet [Live Washington DC 1982]
TTITLE11=Big City [Live Washington DC 1982]
EXTD=YEAR: 2006
EXTT0=
EXTT1=
EXTT2=
EXTT3=
EXTT4=
EXTT5=
EXTT6=
EXTT7=
EXTT8=
EXTT9=
EXTT10=
EXTT11=
PLAYORDER=
